<?xml version="1.0" encoding="UTF-8"?>
<svg xmlns="http://www.w3.org/2000/svg" id="Layer_1" data-name="Layer 1" viewBox="0 0 24 24">
  <path d="m18,16c0,.379.271.698.645.761l3.04.506c1.342.224,2.315,1.374,2.315,2.733,0,1.654-1.346,3-3,3v1h-2v-1c-1.654,0-3-1.346-3-3h2c0,.552.448,1,1,1h2c.552,0,1-.448,1-1,0-.379-.271-.698-.645-.761l-3.04-.506c-1.342-.224-2.315-1.374-2.315-2.733,0-1.654,1.346-3,3-3v-1h2v1c1.654,0,3,1.346,3,3h-2c0-.552-.448-1-1-1h-2c-.552,0-1,.448-1,1ZM22,0h-5v2h3.586l-5.086,5.086L9.5,1.086.12,10.466l1.414,1.414,7.966-7.966,6,6,6.5-6.5v3.586h2V2c0-1.103-.897-2-2-2ZM1,24h2v-10.758l-2,2v8.758Zm10,0h2v-13.757l-2-2v15.757Zm-5,0h2v-15.757l-2,2v13.758Z"/>
</svg>
